<?xml version="1.0" encoding="utf-8"?>
<!-- Generator: Adobe Illustrator 27.5.0, SVG Export Plug-In . SVG Version: 6.00 Build 0)  -->
<svg version="1.1" id="Camada_1" xmlns="http://www.w3.org/2000/svg" xmlns:xlink="http://www.w3.org/1999/xlink" x="0px" y="0px"
	 viewBox="0 0 120 36.1" style="enable-background:new 0 0 120 36.1;" xml:space="preserve">
<g>
	<path d="M19.3,0c0,9.3,7.6,16.8,16.8,16.8C35.5,7.8,28.3,0.6,19.3,0z"/>
	<path d="M0,16.8c9.3,0,16.8-7.6,16.8-16.8C7.7,0.6,0.6,7.8,0,16.8z"/>
	<path d="M19.3,36.1c9-0.6,16.2-7.8,16.8-16.8C26.9,19.3,19.3,26.9,19.3,36.1z"/>
	<path d="M0,19.3c0.6,9,7.8,16.2,16.8,16.8C16.8,26.9,9.2,19.3,0,19.3z"/>
	<polygon points="53,11 49.7,11 49.7,24.9 59.2,24.9 59.2,21.8 53,21.8 	"/>
	<path d="M67.4,20.7c-0.2,0.7-0.4,1.1-0.8,1.6c-0.3,0.4-0.8,0.6-1.3,0.6c-0.6,0-1-0.3-1.2-0.7c-0.2-0.4-0.3-1-0.3-1.7v-6.2h-3.2v7
		c0,2.6,1,3.8,3.2,3.8c0.9,0,1.6-0.2,2.2-0.6s1-0.9,1.4-1.6h0.1v1.8h3.1V14.4h-3.1L67.4,20.7L67.4,20.7z"/>
	<path d="M86.4,14c-1.6,0-2.8,0.8-3.6,2.3h-0.1c-0.2-0.8-0.6-1.4-1.1-1.7c-0.5-0.3-1.2-0.5-1.9-0.5c-1.5,0-2.7,0.7-3.6,2.2h-0.1
		v-1.8h-3.1v10.6h3.1v-5.4c0-0.7,0.1-1.2,0.3-1.7c0.2-0.4,0.4-0.7,0.8-0.9c0.3-0.2,0.6-0.3,1-0.3c1.1,0,1.7,0.8,1.7,2.3v5.8h3.1
		v-5.4c0-1,0.2-1.7,0.5-2.2c0.3-0.4,0.9-0.6,1.4-0.6c0.5,0,1,0.2,1.2,0.6c0.3,0.4,0.3,1,0.3,1.7v5.8h3.2v-7c0-1.4-0.3-2.4-0.9-3
		C88.3,14.3,87.5,14,86.4,14z"/>
	<path d="M92,14.3v10.6h3.1V14.3c-0.6,0.1-1.1,0.2-1.6,0.2S92.6,14.4,92,14.3z"/>
	<path d="M93.5,10.9c-0.6,0-1,0.1-1.3,0.3c-0.3,0.2-0.3,0.5-0.3,1s0.1,0.8,0.4,1c0.3,0.2,0.7,0.3,1.3,0.3c0.6,0,1-0.1,1.3-0.3
		c0.3-0.2,0.4-0.5,0.4-1s-0.1-0.8-0.3-1C94.6,11,94.2,10.9,93.5,10.9z"/>
	<path d="M104.2,14c-1.6,0-2.7,0.7-3.7,2.2h-0.1v-1.8h-3.1V25h3.1v-5.4c0-0.7,0.1-1.2,0.3-1.7c0.2-0.4,0.4-0.7,0.8-0.9
		c0.3-0.2,0.6-0.3,1-0.3c1.1,0,1.7,0.8,1.7,2.3V25h3.1v-7c0-1.4-0.3-2.4-0.9-3C106.1,14.3,105.3,14,104.2,14z"/>
	<path d="M118.6,15.3c-1-1-2.3-1.4-4-1.4c-1.2,0-2.3,0.3-3.1,0.7c-0.8,0.4-1.4,1.1-1.7,2c-0.3,0.9-0.5,1.8-0.5,3
		c0,1.9,0.5,3.3,1.4,4.3c1,1,2.3,1.4,4,1.4c1.2,0,2.3-0.3,3.1-0.7c0.8-0.4,1.4-1.1,1.7-1.9c0.3-0.8,0.5-1.8,0.5-3
		C120,17.7,119.6,16.3,118.6,15.3z M116.6,21.5c-0.2,0.5-0.4,0.9-0.8,1.1c-0.3,0.3-0.8,0.3-1.2,0.3c-0.8,0-1.4-0.3-1.7-0.9
		c-0.3-0.6-0.5-1.4-0.5-2.4c0-0.8,0.1-1.4,0.3-1.8c0.2-0.4,0.4-0.9,0.8-1.1c0.3-0.3,0.8-0.3,1.2-0.3c0.8,0,1.4,0.3,1.7,0.9
		c0.3,0.6,0.5,1.4,0.5,2.4C116.9,20.4,116.8,21,116.6,21.5z"/>
</g>
</svg>
